<svg width="81" height="66" viewBox="0 0 81 66" fill="none" xmlns="http://www.w3.org/2000/svg">
<g clip-path="url(#clip0_15_378)">
<path d="M65.8125 25.0293L63.4149 16.1854C62.4905 12.7752 62.0281 11.0701 61.0801 9.78602C60.1357 8.5072 58.8526 7.52146 57.3777 6.94161C55.8964 6.35938 54.1394 6.35938 50.625 6.35938M15.1875 25.0293L17.5851 16.1854C18.5096 12.7752 18.9718 11.0701 19.92 9.78602C20.8642 8.5072 22.1473 7.52146 23.6224 6.94161C25.1035 6.35938 26.8607 6.35938 30.375 6.35938" stroke="#F03B20" stroke-width="5"/>
<path d="M30.375 6.35938C30.375 4.48464 31.8861 2.96484 33.75 2.96484H47.25C49.114 2.96484 50.625 4.48464 50.625 6.35938C50.625 8.23411 49.114 9.75391 47.25 9.75391H33.75C31.8861 9.75391 30.375 8.23411 30.375 6.35938Z" stroke="#F03B20" stroke-width="5"/>
<path d="M27 36.9102V50.4883" stroke="#F03B20" stroke-width="5" stroke-linecap="round" stroke-linejoin="round"/>
<path d="M54 36.9102V50.4883" stroke="#F03B20" stroke-width="5" stroke-linecap="round" stroke-linejoin="round"/>
<path d="M40.5 36.9102V50.4883" stroke="#F03B20" stroke-width="5" stroke-linecap="round" stroke-linejoin="round"/>
<path d="M13.041 48.6389C14.8826 56.0482 15.8034 59.7526 18.5499 61.9095C21.2965 64.0664 25.0931 64.0664 32.6864 64.0664H48.3148C55.9082 64.0664 59.7047 64.0664 62.4513 61.9095C65.1979 59.7526 66.1186 56.0482 67.9603 48.6389C70.8557 36.9896 72.3036 31.1649 69.2634 27.2486C66.2232 23.332 60.2538 23.332 48.3148 23.332H32.6864C20.7476 23.332 14.7782 23.332 11.7379 27.2486C9.95325 29.5474 9.71507 32.5041 10.4084 36.9102" stroke="#F03B20" stroke-width="5" stroke-linecap="round"/>
</g>
<defs>
<clipPath id="clip0_15_378">
<rect width="81" height="66" fill="white"/>
</clipPath>
</defs>
</svg>
