<svg width="43" height="43" viewBox="0 0 43 43" fill="none" xmlns="http://www.w3.org/2000/svg">
<path d="M21.5 0C9.64189 0 0 9.64189 0 21.5C0 33.3581 9.64189 43 21.5 43C33.3581 43 43 33.3581 43 21.5C43 9.64189 33.3526 0 21.5 0ZM34.4799 34.261C34.0695 32.0448 33.1009 29.949 31.6453 28.1979C31.5077 28.0321 31.3387 27.8952 31.1479 27.7949C30.9572 27.6947 30.7485 27.6332 30.5339 27.6138C30.3193 27.5945 30.103 27.6178 29.8975 27.6823C29.6919 27.7469 29.5011 27.8514 29.3361 27.9899C29.1703 28.1276 29.0334 28.2966 28.9331 28.4873C28.8329 28.6781 28.7714 28.8867 28.752 29.1013C28.7327 29.3159 28.756 29.5322 28.8205 29.7378C28.8851 29.9434 28.9896 30.1342 29.1281 30.2992C30.6056 32.0776 31.421 34.3267 31.421 36.6414C31.421 36.6797 31.4319 36.718 31.4319 36.7563C28.5755 38.6223 25.1663 39.7113 21.5 39.7113C17.8337 39.7113 14.43 38.6223 11.5681 36.7563C11.5681 36.718 11.579 36.6852 11.579 36.6414C11.579 31.1747 16.0279 26.7204 21.5 26.7204C26.611 26.7204 30.7698 22.5616 30.7698 17.4506C30.7698 12.3397 26.611 8.18083 21.5 8.18083C16.389 8.18083 12.2302 12.3397 12.2302 17.4506C12.2302 20.411 13.6256 23.0431 15.7926 24.7395C12.0551 26.5398 9.29168 30.0529 8.52011 34.2555C5.28061 30.9723 3.28328 26.4632 3.28328 21.5C3.28328 11.4532 11.4532 3.28328 21.5 3.28328C31.5468 3.28328 39.7167 11.4532 39.7167 21.5C39.7113 26.4632 37.7139 30.9723 34.4799 34.261ZM15.508 17.4561C15.508 14.1564 18.1948 11.4696 21.4945 11.4696C24.7942 11.4696 27.481 14.1564 27.481 17.4561C27.481 20.7613 24.7942 23.4426 21.4945 23.4426C18.1948 23.4426 15.508 20.7558 15.508 17.4561Z" fill="#919191"/>
</svg>
