<svg width="319" height="81" viewBox="0 0 319 81" fill="none" xmlns="http://www.w3.org/2000/svg">
<path d="M174.78 20.32C177.62 20.32 179.56 21.06 180.6 22.54C181.44 23.78 181.86 25.8 181.86 28.6V42.22C181.86 45.02 181.3 47 180.18 48.16C179.02 49.32 176.94 49.9 173.94 49.9H166.5V53.92H170.64V58H157.92V53.92H161.82V49.9H154.26C151.26 49.9 149.2 49.32 148.08 48.16C146.96 46.96 146.4 44.98 146.4 42.22V28.6C146.4 25.8 146.84 23.78 147.72 22.54C148.72 21.06 150.62 20.32 153.42 20.32H161.82V17.14H157.8V13.06H170.4V17.14H166.38V20.32H174.78ZM161.82 45.76V24.28H151.26V45.76H161.82ZM176.94 24.28H166.38V45.76H176.94V24.28ZM214.794 28V32.08H211.194L200.634 67.66C200.114 69.38 199.454 70.7 198.654 71.62C197.894 72.54 196.634 73 194.874 73H191.094V68.98H195.774L198.474 59.74L189.414 32.08H185.754V28H196.674V32.08H193.854L200.574 52.6L206.694 32.08H203.814V28H214.794ZM242.592 66.22V58H221.412V66.22H217.212V53.98H221.352L230.232 32.2H226.092V28H242.532V53.98H246.912V66.22H242.592ZM238.032 32.2H234.792L225.972 53.98H238.032V32.2ZM277.041 53.92H280.881V58H272.361V35.86L259.221 58H250.821V53.8H254.661V32.2H250.821V28H259.281V49.96L272.361 28H280.881V32.2H277.041V53.92ZM306.73 58H291.79C288.91 58 287.25 56.92 286.81 54.76C286.65 54.12 286.57 53.44 286.57 52.72V33.28C286.57 31.6 287.03 30.3 287.95 29.38C288.91 28.42 290.35 27.94 292.27 27.94H306.73V35.56H302.65V32.08H291.37V53.92H302.65V50.44H306.73V58Z" fill="black"/>
<line x1="134" y1="79.5" x2="319" y2="79.5" stroke="#F03B20" stroke-width="3"/>
<circle cx="86" cy="56" r="4" fill="#6C2C2C"/>
<circle cx="64.5" cy="48.5" r="7.5" fill="#6C2C2C"/>
<circle cx="95.5" cy="40.5" r="4.5" fill="#6C2C2C"/>
<circle cx="58" cy="26" r="4" fill="#6C2C2C"/>
<circle cx="86" cy="22" r="7" fill="#6C2C2C"/>
<path d="M5 54L37 54" stroke="#ED9733" stroke-width="6" stroke-linecap="round"/>
<path d="M19 70H47" stroke="#F35E30" stroke-width="4" stroke-linecap="round"/>
<path d="M19 5L49 5" stroke="#ED9733" stroke-width="4" stroke-linecap="round"/>
<path d="M12 18L37 18" stroke="#F35E30" stroke-width="7" stroke-linecap="round"/>
<path d="M5 37L31 37" stroke="#F03B20" stroke-width="9" stroke-linecap="round"/>
<circle cx="76.5" cy="37.5" r="34" stroke="#F03B20" stroke-width="7"/>
</svg>
