<svg width="35" height="35" viewBox="0 0 35 35" fill="none" xmlns="http://www.w3.org/2000/svg">
<path d="M30.2539 4.85408C29.6844 4.28456 28.761 4.28456 28.1915 4.85408L17.5539 15.4917L6.91629 4.85408C6.34678 4.28456 5.42341 4.28456 4.8539 4.85408C4.28438 5.42359 4.28438 6.34696 4.8539 6.91647L15.4915 17.5541L4.85393 28.1916C4.28441 28.7613 4.28441 29.6845 4.85393 30.2542C5.42344 30.8236 6.34681 30.8236 6.91632 30.2542L17.5539 19.6165L28.1915 30.2542C28.761 30.8236 29.6844 30.8236 30.2539 30.2542C30.8234 29.6845 30.8234 28.7613 30.2539 28.1918L19.6163 17.5541L30.2539 6.91647C30.8234 6.34696 30.8234 5.42359 30.2539 4.85408Z" fill="#0F0F0F"/>
</svg>
