<svg width="116" height="116" viewBox="0 0 116 116" fill="none" xmlns="http://www.w3.org/2000/svg">
<path d="M58.0004 0.399994C46.6082 0.399994 35.4718 3.77817 25.9996 10.1073C16.5273 16.4365 9.14456 25.4324 4.78495 35.9574C0.425348 46.4825 -0.715324 58.0639 1.50718 69.2372C3.72969 80.4105 9.21556 90.6738 17.2711 98.7293C25.3266 106.785 35.5899 112.271 46.7632 114.493C57.9365 116.716 69.5179 115.575 80.043 111.215C90.568 106.856 99.5639 99.4731 105.893 90.0008C112.222 80.5286 115.6 69.3922 115.6 58C115.6 42.7235 109.532 28.0727 98.7297 17.2706C87.9277 6.46855 73.2769 0.399994 58.0004 0.399994ZM58.0004 105.36C50.0876 105.378 42.2965 103.412 35.3388 99.6434C28.381 95.8747 22.4785 90.4227 18.1703 83.7855C13.8622 77.1482 11.2856 69.5374 10.6762 61.648C10.0667 53.7587 11.4436 45.8424 14.6813 38.6222C17.9189 31.402 22.914 25.1081 29.2103 20.3155C35.5066 15.5228 42.9034 12.3841 50.7251 11.1861C58.5467 9.98804 66.5438 10.7689 73.986 13.4573C81.4282 16.1457 88.0781 20.6559 93.3284 26.576L51.6004 68.176L30.3524 47.056L21.3924 56.144L51.6004 86.224L100.304 37.392C103.55 43.7818 105.28 50.8335 105.36 58C105.343 70.5555 100.348 82.5918 91.4703 91.4699C82.5922 100.348 70.5559 105.343 58.0004 105.36Z" fill="#75E640"/>
</svg>
