<svg width="28" height="28" viewBox="0 0 28 28" fill="none" xmlns="http://www.w3.org/2000/svg">
<path d="M27.5181 21.9329C27.4535 21.5284 27.2033 21.1826 26.8286 20.9772L21.2858 17.6664L21.2401 17.6405C21.0163 17.5241 20.7572 17.4641 20.4912 17.4641C20.0268 17.4641 19.5833 17.6425 19.2755 17.9553L17.6395 19.6146C17.5695 19.682 17.3414 19.7796 17.2722 19.7832C17.2532 19.7816 15.3686 19.644 11.899 16.1262C8.43568 12.6158 8.28874 10.6994 8.28758 10.6994C8.28952 10.6014 8.38463 10.3709 8.4523 10.2995L9.84739 8.88558C10.3388 8.38617 10.4862 7.55826 10.1946 6.91695L7.11366 1.0397C6.88978 0.572432 6.45478 0.28392 5.97222 0.28392C5.6308 0.28392 5.30135 0.427392 5.04383 0.688072L1.24097 4.53477C0.876342 4.90246 0.562368 5.54534 0.493928 6.06278C0.460675 6.31014 -0.214059 12.2144 7.77061 20.3104C14.5493 27.1818 19.835 27.7157 21.2947 27.7157C21.6086 27.7157 21.7915 27.6929 21.8267 27.6879C22.3356 27.6189 22.9689 27.3013 23.3312 26.9333L27.131 23.0815C27.4411 22.7655 27.5826 22.348 27.5181 21.9329Z" fill="#F03B20"/>
</svg>
