<svg width="21" height="21" viewBox="0 0 21 21" fill="none" xmlns="http://www.w3.org/2000/svg">
<path d="M20.6385 16.4497C20.5901 16.1463 20.4025 15.887 20.1215 15.7329L15.9643 13.2498L15.9301 13.2304C15.7622 13.1431 15.5679 13.0981 15.3684 13.0981C15.0201 13.0981 14.6875 13.2319 14.4566 13.4665L13.2296 14.711C13.1771 14.7615 13.006 14.8347 12.9541 14.8374C12.9399 14.8362 11.5265 14.733 8.92429 12.0947C6.32676 9.4619 6.21656 8.02453 6.21569 8.02453C6.21714 7.95103 6.28848 7.77816 6.33923 7.72465L7.38555 6.66419C7.75414 6.28964 7.86463 5.66871 7.64597 5.18773L5.33525 0.779783C5.16734 0.429336 4.84109 0.212952 4.47917 0.212952C4.2231 0.212952 3.97602 0.320556 3.78288 0.516066L0.930726 3.40109C0.657256 3.67686 0.421776 4.15902 0.370446 4.5471C0.345506 4.73261 -0.160544 9.16084 5.82796 15.2328C10.9119 20.3863 14.8762 20.7868 15.971 20.7868C16.2065 20.7868 16.3436 20.7697 16.37 20.7659C16.7517 20.7142 17.2267 20.476 17.4984 20.2L20.3483 17.3111C20.5808 17.0741 20.687 16.761 20.6385 16.4497Z" fill="#919191"/>
</svg>
