<svg width="71" height="59" viewBox="0 0 71 59" fill="none" xmlns="http://www.w3.org/2000/svg">
<path d="M64.5425 1.10645C55.3145 4.92845 15.746 21.3182 4.81324 25.7852C-2.51876 28.6464 1.77349 31.3292 1.77349 31.3292C1.77349 31.3292 8.03224 33.4749 13.3977 35.0844C18.7625 36.6939 21.6237 34.9059 21.6237 34.9059L46.8387 17.9169C55.7802 11.8367 53.6345 16.8437 51.488 18.9902C46.8387 23.6402 39.149 30.9714 32.711 36.8732C29.8497 39.3767 31.28 41.5224 32.5325 42.5957C37.1817 46.5302 49.8792 54.5777 50.594 55.1139C54.3717 57.7884 61.8027 61.6382 62.933 53.5044L67.4037 25.4282C68.8347 15.9504 70.265 7.18745 70.4435 4.68395C70.9805 -1.39705 64.5425 1.10645 64.5425 1.10645Z" fill="#1B92D1"/>
</svg>
