<svg width="75" height="43" viewBox="0 0 75 43" fill="none" xmlns="http://www.w3.org/2000/svg">
<path d="M64.5482 27.2657C67.0361 29.6947 69.6618 31.9799 71.8932 34.6538C72.8789 35.8421 73.812 37.0682 74.5259 38.4472C75.5376 40.4074 74.6213 42.5646 72.8636 42.6816L61.9374 42.6766C59.1193 42.9104 56.8712 41.776 54.981 39.8492C53.4682 38.3083 52.0673 36.6684 50.6127 35.0755C50.0163 34.4246 49.3922 33.812 48.6466 33.3277C47.1551 32.3596 45.8603 32.6559 45.0079 34.2116C44.1398 35.7939 43.9428 37.5459 43.8575 39.3092C43.7405 41.8821 42.9628 42.5586 40.3784 42.6763C34.8552 42.9368 29.6134 42.1012 24.7438 39.3149C20.4507 36.8587 17.1217 33.391 14.2239 29.4653C8.58235 21.8213 4.26179 13.4216 0.378781 4.78667C-0.495291 2.84121 0.143967 1.79692 2.29055 1.75986C5.85495 1.69058 9.41892 1.69556 12.9876 1.75488C14.4363 1.77612 15.3953 2.60698 15.9548 3.97559C17.8832 8.71743 20.2429 13.2289 23.2049 17.4105C23.9937 18.5238 24.798 19.6373 25.9432 20.4208C27.2103 21.2884 28.1751 21.0009 28.7711 19.5894C29.1493 18.6943 29.315 17.7303 29.4003 16.7719C29.6827 13.4741 29.7199 10.1818 29.2246 6.89561C28.9205 4.84468 27.7654 3.51694 25.7188 3.12891C24.6745 2.93101 24.83 2.54238 25.3356 1.94634C26.2138 0.918311 27.0398 0.27832 28.6864 0.27832H41.0348C42.9788 0.661963 43.4105 1.5353 43.6766 3.49131L43.6872 17.2077C43.6659 17.9648 44.0654 20.2121 45.4293 20.7132C46.5209 21.07 47.2405 20.1967 47.8955 19.5045C50.852 16.3667 52.9621 12.6583 54.8472 8.81836C55.6838 7.12984 56.4032 5.37642 57.1003 3.62432C57.6168 2.32427 58.4273 1.68457 59.8917 1.71284L71.7763 1.72339C72.1287 1.72339 72.4853 1.72852 72.8266 1.78696C74.8292 2.12827 75.3781 2.98975 74.7594 4.94531C73.7849 8.01343 71.8886 10.5703 70.0346 13.1389C68.0527 15.8813 65.9329 18.5298 63.9675 21.2884C62.1616 23.808 62.305 25.0777 64.5482 27.2657Z" fill="#436EAB"/>
</svg>
