<svg width="67" height="67" viewBox="0 0 67 67" fill="none" xmlns="http://www.w3.org/2000/svg">
<path fill-rule="evenodd" clip-rule="evenodd" d="M33.4903 0C15.0223 0 0 15.0265 0 33.4997C0 40.8259 2.36265 47.6203 6.37897 53.1351L2.20484 65.5816L15.0812 61.4663C20.3772 64.9718 26.6973 67 33.5097 67C51.9777 67 67 51.9729 67 33.5003C67 15.0271 51.9777 0.000553767 33.5097 0.000553767L33.4903 0ZM24.1379 17.0164C23.4884 15.4606 22.9961 15.4017 22.012 15.3617C21.6769 15.3423 21.3035 15.3228 20.8895 15.3228C19.6093 15.3228 18.2707 15.6969 17.4633 16.5239C16.4793 17.5283 14.0377 19.8716 14.0377 24.6772C14.0377 29.4828 17.5422 34.1306 18.0145 34.7809C18.5069 35.4301 24.8469 45.4348 34.691 49.5123C42.3892 52.7027 44.6735 52.407 46.4255 52.0329C48.9849 51.4815 52.1944 49.5901 53.0018 47.3063C53.8092 45.0213 53.8091 43.0715 53.5724 42.6579C53.3363 42.2444 52.6861 42.0087 51.7021 41.5157C50.718 41.0233 45.9332 38.6599 45.0275 38.3448C44.1412 38.0102 43.2949 38.1286 42.6259 39.074C41.6807 40.3935 40.7556 41.7331 40.0071 42.5401C39.4164 43.1704 38.4512 43.2493 37.6444 42.9142C36.5614 42.4617 33.5298 41.3973 29.7885 38.0691C26.894 35.4895 24.9253 32.2797 24.3547 31.3148C23.7834 30.3304 24.2957 29.7585 24.748 29.2271C25.2403 28.6163 25.7127 28.1833 26.205 27.6119C26.6973 27.0411 26.973 26.7454 27.288 26.0756C27.6231 25.4259 27.3863 24.7561 27.1502 24.2637C26.914 23.7712 24.9453 18.9656 24.1379 17.0164Z" fill="#67C15E"/>
</svg>
